# xmcd
#
# Track frame offsets:
#	150
#	21607
#	37492
#	54820
#	71845
#	88362
#	107928
#	128728
#	148919
#	171188
#	189130
#
# Disc length: 2753 seconds
#
# Revision: 0
# Processed by: cddbd v1.5.1PL0 Copyright (c) Steve Scherf et al.
# Submitted via: dBpowerAMP V4.0
#
DISCID=a90abf0b
DTITLE=Carlos Polónia - Acústico
DYEAR=2003
DGENRE=Blues
TTITLE0=Eu Elegia
TTITLE1=Anda Mouro Na Costa
TTITLE2=Há Crise
TTITLE3=Banal
TTITLE4=Um Pouco Do Teu Mundo
TTITLE5=Podre Poder
TTITLE6=Pouco Nublado Ou Limpo
TTITLE7=Nunca Mais Voto
TTITLE8=Blues Instrumental
TTITLE9=O Noticiário
TTITLE10=Dito Adolfo
EXTD=
EXTT0=
EXTT1=
EXTT2=
EXTT3=
EXTT4=
EXTT5=
EXTT6=
EXTT7=
EXTT8=
EXTT9=
EXTT10=
PLAYORDER=
